<svg viewBox="0 0 720 182" fill="none" xmlns="http://www.w3.org/2000/svg">
<g opacity="0.16" clip-path="url(#clip0_92_5870)">
<path d="M390.452 182.353L329.086 182.353L329.086 142.465L390.452 182.353Z" fill="#56CDA9"/>
<path d="M329.086 182.351L390.452 142.465L390.452 182.353L329.086 182.351Z" fill="#56CDA9"/>
<path fill-rule="evenodd" clip-rule="evenodd" d="M359.768 162.408L390.452 182.352L329.086 182.351L329.086 182.351L359.768 162.408Z" fill="#37BA92"/>
<path d="M381.247 142.464C381.247 139.644 380.692 136.851 379.612 134.245C378.533 131.639 376.951 129.272 374.956 127.277C372.962 125.283 370.594 123.701 367.988 122.621C365.383 121.542 362.59 120.986 359.769 120.986C356.949 120.986 354.156 121.542 351.55 122.621C348.944 123.701 346.576 125.283 344.582 127.277C342.587 129.272 341.005 131.639 339.926 134.245C338.847 136.851 338.291 139.644 338.291 142.464H346.111C346.111 140.671 346.464 138.895 347.151 137.238C347.837 135.581 348.843 134.075 350.112 132.807C351.38 131.539 352.885 130.533 354.542 129.846C356.2 129.16 357.976 128.807 359.769 128.807C361.563 128.807 363.339 129.16 364.996 129.846C366.653 130.533 368.159 131.539 369.427 132.807C370.695 134.075 371.701 135.581 372.387 137.238C373.074 138.895 373.427 140.671 373.427 142.464H381.247Z" fill="#37BA92"/>
<g opacity="0.6">
<path d="M314.626 132.625L289.233 132.625L289.233 116.12L314.626 132.625Z" fill="#56CDA9"/>
<path d="M289.232 132.624L314.625 116.12L314.625 132.625L289.232 132.624Z" fill="#56CDA9"/>
<path fill-rule="evenodd" clip-rule="evenodd" d="M301.929 124.372L314.626 132.625L289.233 132.624V132.624L301.929 124.372Z" fill="#37BA92"/>
<path d="M310.817 116.12C310.817 114.953 310.587 113.797 310.14 112.719C309.694 111.64 309.039 110.661 308.214 109.835C307.389 109.01 306.409 108.355 305.331 107.909C304.252 107.462 303.097 107.232 301.929 107.232C300.762 107.232 299.607 107.462 298.528 107.909C297.45 108.355 296.47 109.01 295.645 109.835C294.82 110.661 294.165 111.64 293.719 112.719C293.272 113.797 293.042 114.953 293.042 116.12H296.278C296.278 115.378 296.424 114.643 296.708 113.957C296.992 113.271 297.408 112.648 297.933 112.123C298.458 111.599 299.081 111.182 299.767 110.898C300.452 110.614 301.187 110.468 301.929 110.468C302.672 110.468 303.407 110.614 304.092 110.898C304.778 111.182 305.401 111.599 305.926 112.123C306.451 112.648 306.867 113.271 307.151 113.957C307.435 114.643 307.581 115.378 307.581 116.12H310.817Z" fill="#37BA92"/>
</g>
<g opacity="0.6">
<path d="M430.305 132.625L404.912 132.625L404.912 116.12L430.305 132.625Z" fill="#56CDA9"/>
<path d="M404.911 132.624L430.304 116.12L430.304 132.625L404.911 132.624Z" fill="#56CDA9"/>
<path fill-rule="evenodd" clip-rule="evenodd" d="M417.608 124.372L430.305 132.625L404.912 132.624V132.624L417.608 124.372Z" fill="#37BA92"/>
<path d="M426.496 116.12C426.496 114.953 426.266 113.797 425.819 112.719C425.373 111.64 424.718 110.661 423.893 109.835C423.067 109.01 422.088 108.355 421.009 107.909C419.931 107.462 418.775 107.232 417.608 107.232C416.441 107.232 415.285 107.462 414.207 107.909C413.129 108.355 412.149 109.01 411.324 109.835C410.499 110.661 409.844 111.64 409.397 112.719C408.951 113.797 408.721 114.953 408.721 116.12H411.957C411.957 115.378 412.103 114.643 412.387 113.957C412.671 113.271 413.087 112.648 413.612 112.123C414.137 111.599 414.76 111.182 415.445 110.898C416.131 110.614 416.866 110.468 417.608 110.468C418.35 110.468 419.085 110.614 419.771 110.898C420.457 111.182 421.08 111.599 421.604 112.123C422.129 112.648 422.546 113.271 422.83 113.957C423.114 114.643 423.26 115.378 423.26 116.12H426.496Z" fill="#37BA92"/>
</g>
<path d="M30.8408 182.353L-30.5252 182.353L-30.5252 142.465L30.8408 182.353Z" fill="#56CDA9"/>
<path d="M-30.5254 182.351L30.8407 142.465L30.8407 182.353L-30.5254 182.351Z" fill="#56CDA9"/>
<path fill-rule="evenodd" clip-rule="evenodd" d="M0.157021 162.408L30.8405 182.352L-30.5254 182.351L-30.5254 182.351L0.157021 162.408Z" fill="#37BA92"/>
<path d="M21.636 142.464C21.636 139.644 21.0804 136.851 20.001 134.245C18.9216 131.639 17.3396 129.272 15.3452 127.277C13.3507 125.283 10.983 123.701 8.37714 122.621C5.7713 121.542 2.97837 120.986 0.15782 120.986C-2.66273 120.986 -5.45566 121.542 -8.06151 122.621C-10.6674 123.701 -13.0351 125.283 -15.0295 127.277C-17.0239 129.272 -18.606 131.639 -19.6854 134.245C-20.7648 136.851 -21.3203 139.644 -21.3203 142.464H-13.5001C-13.5001 140.671 -13.1469 138.895 -12.4605 137.238C-11.7741 135.581 -10.7681 134.075 -9.49981 132.807C-8.23155 131.539 -6.72591 130.533 -5.06885 129.846C-3.41179 129.16 -1.63577 128.807 0.15782 128.807C1.95141 128.807 3.72743 129.16 5.38449 129.846C7.04155 130.533 8.54719 131.539 9.81544 132.807C11.0837 134.075 12.0897 135.581 12.7761 137.238C13.4625 138.895 13.8158 140.671 13.8158 142.464H21.636Z" fill="#37BA92"/>
<g opacity="0.6">
<path d="M70.6934 132.625L45.3005 132.625L45.3005 116.12L70.6934 132.625Z" fill="#56CDA9"/>
<path d="M45.2998 132.624L70.6927 116.12L70.6927 132.625L45.2998 132.624Z" fill="#56CDA9"/>
<path fill-rule="evenodd" clip-rule="evenodd" d="M57.9968 124.372L70.6934 132.625L45.3008 132.624V132.624L57.9968 124.372Z" fill="#37BA92"/>
<path d="M66.8844 116.12C66.8844 114.953 66.6545 113.797 66.2079 112.719C65.7612 111.64 65.1066 110.661 64.2813 109.835C63.456 109.01 62.4763 108.355 61.398 107.909C60.3197 107.462 59.164 107.232 57.9969 107.232C56.8298 107.232 55.6741 107.462 54.5958 107.909C53.5175 108.355 52.5377 109.01 51.7125 109.835C50.8872 110.661 50.2325 111.64 49.7859 112.719C49.3393 113.797 49.1094 114.953 49.1094 116.12H52.3453C52.3453 115.378 52.4915 114.643 52.7755 113.957C53.0595 113.271 53.4758 112.648 54.0006 112.123C54.5254 111.599 55.1484 111.182 55.8341 110.898C56.5198 110.614 57.2547 110.468 57.9969 110.468C58.7391 110.468 59.474 110.614 60.1596 110.898C60.8453 111.182 61.4683 111.599 61.9931 112.123C62.5179 112.648 62.9342 113.271 63.2182 113.957C63.5023 114.643 63.6484 115.378 63.6484 116.12H66.8844Z" fill="#37BA92"/>
</g>
<path d="M750.84 182.352L689.474 182.352L689.474 142.464L750.84 182.352Z" fill="#56CDA9"/>
<path d="M689.474 182.351L750.84 142.465L750.84 182.353L689.474 182.351Z" fill="#56CDA9"/>
<path fill-rule="evenodd" clip-rule="evenodd" d="M720.157 162.408L750.841 182.352L689.475 182.351L689.475 182.351L720.157 162.408Z" fill="#37BA92"/>
<path d="M741.635 142.464C741.635 139.644 741.079 136.851 740 134.245C738.921 131.639 737.339 129.272 735.344 127.277C733.35 125.283 730.982 123.701 728.376 122.621C725.77 121.542 722.977 120.986 720.157 120.986C717.336 120.986 714.543 121.542 711.938 122.621C709.332 123.701 706.964 125.283 704.97 127.277C702.975 129.272 701.393 131.639 700.314 134.245C699.234 136.851 698.679 139.644 698.679 142.464H706.499C706.499 140.671 706.852 138.895 707.539 137.238C708.225 135.581 709.231 134.075 710.499 132.807C711.767 131.539 713.273 130.533 714.93 129.846C716.587 129.16 718.363 128.807 720.157 128.807C721.95 128.807 723.726 129.16 725.384 129.846C727.041 130.533 728.546 131.539 729.814 132.807C731.083 134.075 732.089 135.581 732.775 137.238C733.462 138.895 733.815 140.671 733.815 142.464H741.635Z" fill="#37BA92"/>
<g opacity="0.6">
<path d="M675.014 132.625L649.621 132.625L649.621 116.12L675.014 132.625Z" fill="#56CDA9"/>
<path d="M649.621 132.624L675.014 116.12L675.014 132.625L649.621 132.624Z" fill="#56CDA9"/>
<path fill-rule="evenodd" clip-rule="evenodd" d="M662.317 124.372L649.621 132.624L675.013 132.625L662.317 124.372Z" fill="#37BA92"/>
<path d="M671.206 116.12C671.206 114.953 670.976 113.797 670.529 112.719C670.083 111.64 669.428 110.661 668.603 109.835C667.777 109.01 666.798 108.355 665.719 107.909C664.641 107.462 663.485 107.232 662.318 107.232C661.151 107.232 659.995 107.462 658.917 107.909C657.839 108.355 656.859 109.01 656.034 109.835C655.208 110.661 654.554 111.64 654.107 112.719C653.661 113.797 653.431 114.953 653.431 116.12H656.667C656.667 115.378 656.813 114.643 657.097 113.957C657.381 113.271 657.797 112.648 658.322 112.123C658.847 111.599 659.47 111.182 660.155 110.898C660.841 110.614 661.576 110.468 662.318 110.468C663.06 110.468 663.795 110.614 664.481 110.898C665.167 111.182 665.79 111.599 666.314 112.123C666.839 112.648 667.256 113.271 667.54 113.957C667.824 114.643 667.97 115.378 667.97 116.12H671.206Z" fill="#37BA92"/>
</g>
</g>
<g opacity="0.06" clip-path="url(#clip1_92_5870)">
<path d="M214.452 79.3526L153.086 79.3525L153.086 39.4646L214.452 79.3526Z" fill="#56CDA9"/>
<path d="M153.086 79.3512L214.452 39.4646L214.452 79.3525L153.086 79.3512Z" fill="#56CDA9"/>
<path fill-rule="evenodd" clip-rule="evenodd" d="M183.768 59.408L214.452 79.3523L153.086 79.351L153.086 79.3509L183.768 59.408Z" fill="#37BA92"/>
<path d="M205.247 39.4645C205.247 36.6439 204.692 33.851 203.612 31.2451C202.533 28.6393 200.951 26.2716 198.956 24.2771C196.962 22.2827 194.594 20.7006 191.988 19.6213C189.383 18.5419 186.59 17.9863 183.769 17.9863C180.949 17.9863 178.156 18.5419 175.55 19.6213C172.944 20.7006 170.576 22.2827 168.582 24.2771C166.587 26.2716 165.005 28.6393 163.926 31.2451C162.847 33.851 162.291 36.6439 162.291 39.4645H170.111C170.111 37.6709 170.464 35.8948 171.151 34.2378C171.837 32.5807 172.843 31.0751 174.112 29.8068C175.38 28.5386 176.885 27.5325 178.542 26.8462C180.2 26.1598 181.976 25.8065 183.769 25.8065C185.563 25.8065 187.339 26.1598 188.996 26.8462C190.653 27.5325 192.159 28.5386 193.427 29.8068C194.695 31.0751 195.701 32.5807 196.387 34.2378C197.074 35.8948 197.427 37.6709 197.427 39.4645H205.247Z" fill="#37BA92"/>
<g opacity="0.88">
<path d="M138.626 29.625L113.233 29.625L113.233 13.1196L138.626 29.625Z" fill="#56CDA9"/>
<path d="M113.232 29.6245L138.625 13.1196L138.625 29.625L113.232 29.6245Z" fill="#56CDA9"/>
<path fill-rule="evenodd" clip-rule="evenodd" d="M125.929 21.3721L138.626 29.6249L113.233 29.6243V29.6242L125.929 21.3721Z" fill="#37BA92"/>
<path d="M134.817 13.1197C134.817 11.9526 134.587 10.7969 134.14 9.71858C133.694 8.6403 133.039 7.66055 132.214 6.83527C131.389 6.00999 130.409 5.35534 129.331 4.9087C128.252 4.46206 127.097 4.23218 125.929 4.23218C124.762 4.23218 123.607 4.46206 122.528 4.9087C121.45 5.35534 120.47 6.00999 119.645 6.83527C118.82 7.66055 118.165 8.6403 117.719 9.71858C117.272 10.7969 117.042 11.9526 117.042 13.1197H120.278C120.278 12.3775 120.424 11.6426 120.708 10.9569C120.992 10.2712 121.408 9.64822 121.933 9.12342C122.458 8.59863 123.081 8.18233 123.767 7.89832C124.452 7.6143 125.187 7.46812 125.929 7.46812C126.672 7.46812 127.407 7.6143 128.092 7.89832C128.778 8.18233 129.401 8.59862 129.926 9.12342C130.451 9.64822 130.867 10.2712 131.151 10.9569C131.435 11.6426 131.581 12.3775 131.581 13.1197H134.817Z" fill="#37BA92"/>
</g>
<g opacity="0.88">
<path d="M254.305 29.625L228.912 29.625L228.912 13.1196L254.305 29.625Z" fill="#56CDA9"/>
<path d="M228.911 29.6245L254.304 13.1196L254.304 29.625L228.911 29.6245Z" fill="#56CDA9"/>
<path fill-rule="evenodd" clip-rule="evenodd" d="M241.608 21.3721L254.305 29.6249L228.912 29.6243V29.6242L241.608 21.3721Z" fill="#37BA92"/>
<path d="M250.496 13.1197C250.496 11.9526 250.266 10.7969 249.819 9.71858C249.373 8.6403 248.718 7.66055 247.893 6.83527C247.067 6.00999 246.088 5.35534 245.009 4.9087C243.931 4.46206 242.775 4.23218 241.608 4.23218C240.441 4.23218 239.285 4.46206 238.207 4.9087C237.129 5.35534 236.149 6.00999 235.324 6.83527C234.499 7.66055 233.844 8.6403 233.397 9.71858C232.951 10.7969 232.721 11.9526 232.721 13.1197H235.957C235.957 12.3775 236.103 11.6426 236.387 10.9569C236.671 10.2712 237.087 9.64822 237.612 9.12342C238.137 8.59863 238.76 8.18233 239.445 7.89832C240.131 7.6143 240.866 7.46812 241.608 7.46812C242.35 7.46812 243.085 7.6143 243.771 7.89832C244.457 8.18233 245.08 8.59862 245.604 9.12342C246.129 9.64822 246.546 10.2712 246.83 10.9569C247.114 11.6426 247.26 12.3775 247.26 13.1197H250.496Z" fill="#37BA92"/>
</g>
<path d="M574.84 79.3523L513.474 79.3523L513.474 39.4644L574.84 79.3523Z" fill="#56CDA9"/>
<path d="M513.474 79.3512L574.84 39.4646L574.84 79.3525L513.474 79.3512Z" fill="#56CDA9"/>
<path fill-rule="evenodd" clip-rule="evenodd" d="M544.157 59.408L574.841 79.3523L513.475 79.351L513.475 79.3509L544.157 59.408Z" fill="#37BA92"/>
<path d="M565.635 39.4645C565.635 36.6439 565.079 33.851 564 31.2451C562.921 28.6393 561.339 26.2716 559.344 24.2771C557.35 22.2827 554.982 20.7006 552.376 19.6213C549.77 18.5419 546.977 17.9863 544.157 17.9863C541.336 17.9863 538.543 18.5419 535.938 19.6213C533.332 20.7006 530.964 22.2827 528.97 24.2771C526.975 26.2716 525.393 28.6393 524.314 31.2451C523.234 33.851 522.679 36.6439 522.679 39.4645H530.499C530.499 37.6709 530.852 35.8948 531.539 34.2378C532.225 32.5807 533.231 31.0751 534.499 29.8068C535.767 28.5386 537.273 27.5325 538.93 26.8462C540.587 26.1598 542.363 25.8065 544.157 25.8065C545.95 25.8065 547.726 26.1598 549.384 26.8462C551.041 27.5325 552.546 28.5386 553.814 29.8068C555.083 31.0751 556.089 32.5807 556.775 34.2378C557.462 35.8948 557.815 37.6709 557.815 39.4645H565.635Z" fill="#37BA92"/>
<g opacity="0.88">
<path d="M499.014 29.625L473.621 29.625L473.621 13.1196L499.014 29.625Z" fill="#56CDA9"/>
<path d="M473.621 29.6245L499.014 13.1196L499.014 29.625L473.621 29.6245Z" fill="#56CDA9"/>
<path fill-rule="evenodd" clip-rule="evenodd" d="M486.317 21.3723L473.621 29.6244L499.013 29.625L486.317 21.3723Z" fill="#37BA92"/>
<path d="M495.206 13.1197C495.206 11.9526 494.976 10.7969 494.529 9.71858C494.083 8.6403 493.428 7.66055 492.603 6.83527C491.777 6.00999 490.798 5.35534 489.719 4.9087C488.641 4.46206 487.485 4.23218 486.318 4.23218C485.151 4.23218 483.995 4.46206 482.917 4.9087C481.839 5.35534 480.859 6.00999 480.034 6.83527C479.208 7.66055 478.554 8.6403 478.107 9.71858C477.661 10.7969 477.431 11.9526 477.431 13.1197H480.667C480.667 12.3775 480.813 11.6426 481.097 10.9569C481.381 10.2712 481.797 9.64822 482.322 9.12342C482.847 8.59863 483.47 8.18233 484.155 7.89832C484.841 7.6143 485.576 7.46812 486.318 7.46812C487.06 7.46812 487.795 7.6143 488.481 7.89832C489.167 8.18233 489.79 8.59862 490.314 9.12342C490.839 9.64822 491.256 10.2712 491.54 10.9569C491.824 11.6426 491.97 12.3775 491.97 13.1197H495.206Z" fill="#37BA92"/>
</g>
<g opacity="0.88">
<path d="M614.692 29.625L589.3 29.625L589.3 13.1196L614.692 29.625Z" fill="#56CDA9"/>
<path d="M589.3 29.6245L614.693 13.1196L614.693 29.625L589.3 29.6245Z" fill="#56CDA9"/>
<path fill-rule="evenodd" clip-rule="evenodd" d="M601.997 21.3723L589.301 29.6244L614.693 29.625L601.997 21.3723Z" fill="#37BA92"/>
<path d="M610.884 13.1197C610.884 11.9526 610.655 10.7969 610.208 9.71858C609.761 8.6403 609.107 7.66055 608.281 6.83527C607.456 6.00999 606.476 5.35534 605.398 4.9087C604.32 4.46206 603.164 4.23218 601.997 4.23218C600.83 4.23218 599.674 4.46206 598.596 4.9087C597.517 5.35534 596.538 6.00999 595.712 6.83527C594.887 7.66055 594.233 8.6403 593.786 9.71858C593.339 10.7969 593.109 11.9526 593.109 13.1197H596.345C596.345 12.3775 596.491 11.6426 596.776 10.9569C597.06 10.2712 597.476 9.64822 598.001 9.12342C598.525 8.59863 599.148 8.18233 599.834 7.89832C600.52 7.6143 601.255 7.46812 601.997 7.46812C602.739 7.46812 603.474 7.6143 604.16 7.89832C604.845 8.18233 605.468 8.59862 605.993 9.12342C606.518 9.64822 606.934 10.2712 607.218 10.9569C607.502 11.6426 607.648 12.3775 607.648 13.1197H610.884Z" fill="#37BA92"/>
</g>
</g>
<defs>
<clipPath id="clip0_92_5870">
<rect width="720" height="79" fill="white" transform="translate(0 103)"/>
</clipPath>
<clipPath id="clip1_92_5870">
<rect width="720" height="79" fill="white"/>
</clipPath>
</defs>
</svg>
