<svg viewBox="0 0 24 25" fill="none" xmlns="http://www.w3.org/2000/svg">
<g id="vuesax/bold/ticket-discount">
<g id="ticket-discount">
<path id="Vector" d="M21.3 11.7168C21.69 11.7168 22 11.4068 22 11.0168V10.0868C22 5.98682 20.75 4.73682 16.65 4.73682H7.35C3.25 4.73682 2 5.98682 2 10.0868V10.5568C2 10.9468 2.31 11.2568 2.7 11.2568C3.6 11.2568 4.33 11.9868 4.33 12.8868C4.33 13.7868 3.6 14.5068 2.7 14.5068C2.31 14.5068 2 14.8168 2 15.2068V15.6768C2 19.7768 3.25 21.0268 7.35 21.0268H16.65C20.75 21.0268 22 19.7768 22 15.6768C22 15.2868 21.69 14.9768 21.3 14.9768C20.4 14.9768 19.67 14.2468 19.67 13.3468C19.67 12.4468 20.4 11.7168 21.3 11.7168ZM9 9.75682C9.55 9.75682 10 10.2068 10 10.7568C10 11.3068 9.56 11.7568 9 11.7568C8.45 11.7568 8 11.3068 8 10.7568C8 10.2068 8.44 9.75682 9 9.75682ZM15 16.7568C14.44 16.7568 13.99 16.3068 13.99 15.7568C13.99 15.2068 14.44 14.7568 14.99 14.7568C15.54 14.7568 15.99 15.2068 15.99 15.7568C15.99 16.3068 15.56 16.7568 15 16.7568ZM15.9 10.3568L9.17 17.0868C9.02 17.2368 8.83 17.3068 8.64 17.3068C8.45 17.3068 8.26 17.2368 8.11 17.0868C7.82 16.7968 7.82 16.3168 8.11 16.0268L14.84 9.29682C15.13 9.00682 15.61 9.00682 15.9 9.29682C16.19 9.58682 16.19 10.0668 15.9 10.3568Z" />
</g>
</g>
</svg>
