<svg viewBox="0 0 48 28" fill="none" xmlns="http://www.w3.org/2000/svg">
<g id="upi-icon 1">
<path id="Vector" fill-rule="evenodd" clip-rule="evenodd" d="M0.381111 20.0732H0.736863L0.403729 21.1972C0.352934 21.3625 0.364243 21.4909 0.431905 21.5735C0.499759 21.656 0.623773 21.6973 0.810083 21.6973C0.990643 21.6973 1.14303 21.656 1.26167 21.5735C1.38013 21.4907 1.45929 21.3624 1.51009 21.1972L1.84303 20.0732H2.20434L1.86565 21.2248C1.79223 21.4725 1.66247 21.6607 1.4706 21.7845C1.28429 21.9084 1.03588 21.9727 0.731112 21.9727C0.426346 21.9727 0.217419 21.9131 0.104521 21.7891C-0.00837644 21.6652 -0.0309943 21.4772 0.0424179 21.2295L0.381111 20.0734V20.0732ZM43.2222 21.9221L43.7639 20.0732H45L44.9266 20.3301H44.0518L43.9165 20.7934H44.7913L44.7121 21.055H43.8373L43.6623 21.6512H44.5373L44.4583 21.922H43.2222V21.9221ZM43.1883 20.5228C43.1091 20.4496 43.0133 20.3945 42.9117 20.3622C42.8099 20.3256 42.6972 20.3072 42.5672 20.3072C42.3246 20.3072 42.1101 20.3714 41.9182 20.4999C41.7264 20.6284 41.6021 20.7983 41.54 21.0045C41.4835 21.2019 41.5061 21.367 41.6192 21.5001C41.7264 21.6284 41.8956 21.6928 42.1214 21.6928C42.2512 21.6928 42.3811 21.6744 42.5107 21.6331C42.6407 21.5965 42.7706 21.5367 42.9059 21.4588L42.8043 21.7983C42.6914 21.8578 42.573 21.8992 42.4486 21.9268C42.3244 21.9542 42.2002 21.9681 42.0649 21.9681C41.8956 21.9681 41.743 21.945 41.6133 21.899C41.4833 21.8532 41.3764 21.7844 41.2914 21.6928C41.2069 21.6055 41.1561 21.5001 41.1335 21.3809C41.1111 21.2616 41.1166 21.1332 41.1619 20.9955C41.2014 20.8579 41.269 20.7338 41.3595 20.6146C41.4498 20.4952 41.5682 20.3898 41.7037 20.3027C41.8391 20.2109 41.9859 20.1422 42.144 20.0963C42.302 20.0505 42.4599 20.0276 42.6238 20.0276C42.7536 20.0276 42.872 20.0413 42.9851 20.0734C43.0922 20.1056 43.1938 20.1513 43.2841 20.2156L43.1883 20.5228ZM39.6773 21.1927H40.2924L40.1908 20.7705C40.1853 20.7431 40.1795 20.7109 40.1795 20.6788C40.1738 20.6422 40.1738 20.6054 40.1738 20.5641C40.1512 20.6054 40.1287 20.642 40.1004 20.6788C40.0777 20.7154 40.0553 20.7476 40.0327 20.7752L39.6771 21.1927H39.6773ZM40.4619 21.9221L40.349 21.4451H39.4684L39.0732 21.9221H38.6952L40.3319 20L40.8398 21.9221H40.4619ZM37.4817 21.9221L38.0235 20.0732H39.2597L39.1863 20.3301H38.3112L38.1759 20.7889H39.0505L38.9716 21.0505H38.0968L37.8428 21.9174H37.4815V21.9221H37.4817ZM36.4148 20.8578H36.4825C36.6743 20.8578 36.8043 20.8394 36.8777 20.8026C36.9509 20.7659 37.0019 20.7017 37.0301 20.6052C37.0581 20.5043 37.047 20.4309 36.9904 20.3896C36.9342 20.3483 36.8154 20.3253 36.6348 20.3253H36.567L36.4146 20.8576L36.4148 20.8578ZM36.3245 21.0918L36.0817 21.9174H35.743L36.285 20.0687H36.7874C36.9342 20.0687 37.047 20.0779 37.1204 20.0918C37.1991 20.1056 37.2614 20.133 37.3065 20.1697C37.363 20.2156 37.3968 20.2706 37.4136 20.344C37.4307 20.413 37.4249 20.4909 37.4023 20.578C37.3573 20.7249 37.2837 20.8442 37.171 20.9266C37.0581 21.0092 36.9168 21.0597 36.7476 21.078L37.2612 21.9173H36.8547L36.3636 21.0916H36.3241L36.3245 21.0918ZM34.0949 21.9221L34.637 20.0732H35.8787L35.8055 20.3301H34.9305L34.7951 20.7934H35.6699L35.5912 21.055H34.7162L34.5414 21.6512H35.4162L35.337 21.922H34.0951L34.0949 21.9221ZM33.7056 20.3256L33.2372 21.9174H32.8761L33.3445 20.3256H32.7574L32.8308 20.0687H34.3662L34.2929 20.3256H33.7058H33.7056ZM30.0312 21.9221L30.5957 20L31.6681 21.1285C31.6965 21.1606 31.7245 21.1929 31.7526 21.2295C31.7808 21.2661 31.8092 21.3075 31.8429 21.3532L32.2213 20.0732H32.5542L31.9898 21.991L30.8947 20.8394C30.8665 20.8073 30.8382 20.7752 30.8102 20.743C30.782 20.7063 30.7594 20.6741 30.7423 20.6328L30.3643 21.9173H30.0314V21.922L30.0312 21.9221ZM29.1506 21.9221L29.6925 20.0732H30.0536L29.5118 21.9221H29.1506ZM26.4921 21.5506L26.8137 21.4404C26.8193 21.523 26.8474 21.5872 26.9097 21.6284C26.9718 21.6697 27.0564 21.6928 27.1693 21.6928C27.2764 21.6928 27.3669 21.6697 27.4459 21.6194C27.5248 21.5689 27.5758 21.5048 27.5982 21.4222C27.6322 21.312 27.5532 21.2156 27.3613 21.1332C27.3332 21.1193 27.3163 21.1101 27.299 21.1056C27.0846 21.0047 26.9492 20.9176 26.8927 20.835C26.8363 20.7525 26.8248 20.656 26.8589 20.5415C26.904 20.3901 27 20.2708 27.1522 20.1745C27.3048 20.0827 27.474 20.0322 27.6774 20.0322C27.8411 20.0322 27.9707 20.0598 28.0667 20.1101C28.1627 20.1608 28.2135 20.2387 28.2304 20.3351L27.9145 20.4544C27.8861 20.3948 27.8522 20.3535 27.8072 20.3259C27.7621 20.2985 27.7056 20.2846 27.6377 20.2846C27.5417 20.2846 27.4572 20.3075 27.3895 20.3488C27.3217 20.3901 27.2766 20.4452 27.254 20.5186C27.2203 20.6288 27.3163 20.7341 27.5361 20.8305C27.5532 20.8397 27.5643 20.8444 27.5758 20.8487C27.7677 20.9313 27.8975 21.014 27.9538 21.0966C28.0104 21.179 28.0217 21.2754 27.9879 21.3993C27.9369 21.5736 27.8298 21.7112 27.6659 21.8168C27.5024 21.9176 27.3103 21.9729 27.0846 21.9729C26.8984 21.9729 26.7516 21.936 26.65 21.8626C26.5371 21.7892 26.4863 21.6836 26.4921 21.5507V21.5506ZM26.1139 20.3256L25.6454 21.9174H25.2843L25.7528 20.3256H25.1659L25.2389 20.0687H26.7742L26.7008 20.3256H26.1139ZM22.4395 21.9221L23.0038 20L24.0764 21.1285C24.1046 21.1606 24.1329 21.1929 24.1611 21.2295C24.1891 21.2661 24.2175 21.3075 24.2514 21.3532L24.6296 20.0732H24.9625L24.3982 21.991L23.3032 20.8394C23.2748 20.8073 23.2468 20.7752 23.2184 20.743C23.1903 20.7063 23.1676 20.6741 23.1508 20.6328L22.7726 21.9173H22.4397V21.922L22.4395 21.9221ZM20.7912 21.9221L21.3331 20.0732H22.5692L22.4958 20.3301H21.621L21.4855 20.7934H22.3603L22.2813 21.055H21.4065L21.2315 21.6512H22.1065L22.0274 21.922H20.7912V21.9221ZM20.193 21.0092C20.193 20.9955 20.1986 20.954 20.2099 20.8899C20.2156 20.8349 20.2212 20.7936 20.2269 20.7568C20.2043 20.7983 20.1817 20.8394 20.1535 20.8852C20.1253 20.9266 20.0914 20.9724 20.0519 21.0137L19.1827 22L18.9005 20.9955C18.8892 20.9542 18.8779 20.9129 18.8722 20.8761C18.8666 20.8395 18.8609 20.7983 18.8609 20.7615C18.8495 20.7983 18.8327 20.8394 18.8158 20.8852C18.7988 20.9266 18.7763 20.9724 18.748 21.0184L18.24 21.9268H17.9071L18.9964 20L19.3069 21.1651C19.3124 21.1835 19.3182 21.2156 19.3239 21.2569C19.3295 21.2983 19.3408 21.3533 19.3521 21.4175C19.3916 21.3625 19.4424 21.2983 19.5103 21.2156C19.5271 21.1929 19.544 21.179 19.5497 21.1651L20.5319 20L20.498 21.9268H20.165L20.1934 21.0092H20.193ZM16.7557 21.9221L17.0041 21.078L16.5525 20.0779H16.9305L17.2126 20.7065C17.2184 20.7247 17.2239 20.7431 17.2352 20.7705C17.2466 20.7983 17.2523 20.8257 17.2634 20.8531C17.286 20.8257 17.3087 20.7981 17.3313 20.7705C17.3539 20.7431 17.3765 20.72 17.3989 20.6971L18.0595 20.0779H18.4206L17.3652 21.0734L17.1168 21.9173H16.7555V21.922L16.7557 21.9221ZM15.0793 21.1927H15.6944L15.5928 20.7705C15.587 20.7431 15.5815 20.7109 15.5815 20.6788C15.5757 20.6422 15.5757 20.6054 15.5757 20.5641C15.5531 20.6054 15.5305 20.642 15.5023 20.6788C15.4797 20.7154 15.4573 20.7476 15.4344 20.7752L15.0789 21.1927H15.0793ZM15.858 21.9221L15.7451 21.4451H14.8646L14.4695 21.9221H14.0914L15.7283 20L16.2362 21.9221H15.858ZM13.5947 20.8441H13.685C13.8826 20.8441 14.0237 20.8257 14.1027 20.7889C14.1816 20.7523 14.2324 20.6881 14.2608 20.5962C14.2888 20.4999 14.2719 20.4265 14.2156 20.3899C14.1535 20.3487 14.0293 20.3303 13.8431 20.3303H13.7529L13.5947 20.8442V20.8441ZM13.4987 21.0918L13.256 21.9221H12.9173L13.4592 20.0732H14.0066C14.1703 20.0732 14.2832 20.0824 14.3566 20.0961C14.4301 20.1098 14.4866 20.1329 14.5316 20.1695C14.588 20.2108 14.6275 20.2704 14.6445 20.3438C14.6614 20.4174 14.6559 20.4952 14.6332 20.5823C14.6051 20.6696 14.5656 20.7521 14.5035 20.8255C14.4414 20.8989 14.368 20.9586 14.289 20.9998C14.2213 21.0319 14.1479 21.0594 14.0689 21.0732C13.99 21.0869 13.8658 21.0963 13.7076 21.0963H13.4989V21.0916L13.4987 21.0918ZM10.129 21.6468H10.4338C10.5975 21.6468 10.7272 21.6376 10.8177 21.6194C10.908 21.6012 10.987 21.5689 11.0604 21.5277C11.162 21.468 11.2467 21.3946 11.3144 21.3029C11.3822 21.2156 11.433 21.1101 11.4667 20.991C11.5005 20.8716 11.5118 20.7707 11.4949 20.6838C11.478 20.5964 11.4386 20.5185 11.3707 20.4588C11.3199 20.413 11.2578 20.3854 11.1733 20.367C11.0886 20.3487 10.9588 20.3396 10.7725 20.3396H10.513L10.129 21.647V21.6468ZM9.68874 21.9221L10.2308 20.0732H10.7161C11.0322 20.0732 11.2524 20.0869 11.3707 20.1145C11.4894 20.1421 11.5907 20.1834 11.6699 20.2475C11.7715 20.3301 11.8394 20.4357 11.8675 20.5594C11.8957 20.688 11.8844 20.8347 11.8394 20.9953C11.7884 21.1605 11.7151 21.3025 11.6136 21.4309C11.512 21.5594 11.3822 21.6604 11.2298 21.743C11.1169 21.8073 10.9927 21.8486 10.8572 21.876C10.7274 21.9036 10.5298 21.9173 10.2701 21.9173H9.68874V21.922V21.9221ZM8.03495 21.9221L8.57682 20.0732H9.81295L9.73954 20.3301H8.86453L8.72902 20.7934H9.60402L9.52505 21.055H8.65004L8.47504 21.6512H9.35005L9.27108 21.922H8.03495V21.9221ZM7.15995 21.9221L7.70182 20.0732H8.06294L7.52107 21.9221H7.15976H7.15995ZM5.52303 21.9221L6.0649 20.0732H7.30102L7.22761 20.3301H6.3528L6.21728 20.7889H7.0921L7.01313 21.0505H6.13812L5.88415 21.9174H5.52284V21.9221H5.52303ZM4.64803 21.9221L5.1899 20.0732H5.55101L5.00915 21.9221H4.64783H4.64803ZM2.15335 21.9221L2.71765 20L3.79008 21.1285C3.81826 21.1606 3.84643 21.1929 3.8748 21.2295C3.90298 21.2661 3.93116 21.3075 3.96508 21.3532L4.34326 20.0732H4.6762L4.11191 21.991L3.01686 20.8394C2.98868 20.8073 2.9605 20.7752 2.93214 20.743C2.90396 20.7063 2.88134 20.6741 2.86447 20.6328L2.4863 21.9173H2.15335V21.922V21.9221Z" fill="white"/>
<path id="Vector_2" fill-rule="evenodd" clip-rule="evenodd" d="M37.4544 17.9457H34.9028L38.4484 6H41L37.4544 17.9457ZM16.2507 17.1973C16.1111 17.6691 15.6461 17.9998 15.123 17.9998H1.96956C1.60914 17.9998 1.34188 17.8858 1.16739 17.6582C0.993103 17.4303 0.952442 17.1484 1.05706 16.8123L4.26553 6.03259H6.8173L3.95169 15.6627H14.1584L17.0238 6.03259H19.5756L16.2509 17.1973H16.2507ZM36.1292 6.37417C35.9549 6.14639 35.6815 6.03259 35.3096 6.03259H21.2901L20.5984 8.37503H33.351L32.6071 10.8749H22.4063V10.8694H19.8547L17.7389 18H20.2905L21.7087 13.2173H33.1767C33.5371 13.2173 33.8743 13.1034 34.1881 12.8758C34.5019 12.648 34.7114 12.3661 34.8101 12.0298L36.2283 7.24736C36.3386 6.88958 36.3038 6.60214 36.1294 6.37436L36.1292 6.37417Z" fill="white"/>
<path id="Vector_3" fill-rule="evenodd" clip-rule="evenodd" d="M44.6708 6L48 12L41 18L41.8325 15.2783L45.6608 12L43.8395 8.71763L44.6708 6Z" fill="#0E8635"/>
<path id="Vector_4" fill-rule="evenodd" clip-rule="evenodd" d="M42.6739 6L46 12L39 18L42.6739 6Z" fill="#E97208"/>
</g>
</svg>
